<?xml version="1.0" encoding="UTF-8" standalone="no"?>
<!-- Created with Inkscape (http://www.inkscape.org/) -->

<svg
   width="48mm"
   height="48mm"
   viewBox="0 0 48 48"
   version="1.1"
   id="svg5"
   inkscape:export-filename="bitmap.svg"
   inkscape:export-xdpi="96"
   inkscape:export-ydpi="96"
   xmlns:inkscape="http://www.inkscape.org/namespaces/inkscape"
   xmlns:sodipodi="http://sodipodi.sourceforge.net/DTD/sodipodi-0.dtd"
   xmlns="http://www.w3.org/2000/svg"
   xmlns:svg="http://www.w3.org/2000/svg">
  <sodipodi:namedview
     id="namedview7"
     pagecolor="#ffffff"
     bordercolor="#000000"
     borderopacity="0.25"
     inkscape:showpageshadow="2"
     inkscape:pageopacity="0.0"
     inkscape:pagecheckerboard="0"
     inkscape:deskcolor="#d1d1d1"
     inkscape:document-units="mm"
     showgrid="false" />
  <defs
     id="defs2" />
  <g
     inkscape:label="Layer 1"
     inkscape:groupmode="layer"
     id="layer1">
    <path
       style="fill:#000000;stroke-width:2.88999"
       id="path6202"
       d="M 10.200341,4.9310919 C 8.7918929,10.032255 7.5515157,15.182914 6.3892355,20.345919 5.2596957,25.276094 4.772725,30.312674 4.7086686,35.36171 c 0.016637,0.437015 -0.012708,0.878221 0.049914,1.311048 0.291628,2.015601 2.2059056,2.366668 4.2506931,3.22976 0.4237456,0.178861 0.9190286,-0.05194 1.3757203,-0.106571 1.635158,-0.195601 3.235413,-0.516739 4.85598,-0.810281 6.891548,-1.478717 13.896358,-1.563688 20.90153,-1.224942 2.687148,0.13153 5.287534,0.791819 7.868944,1.494057 0,0 -2.952327,-2.263227 -2.952327,-2.263227 v 0 c -2.549493,-0.646996 -5.117134,-1.2465 -7.762171,-1.314947 -3.194222,-0.08966 -6.386168,-0.133337 -9.580139,0.02376 -2.955511,0.145373 -4.882335,0.338392 -7.810738,0.732094 -1.180949,0.158772 -2.355921,0.359215 -3.533882,0.538819 -1.382283,0.200467 -3.5579941,0.568613 -5.0351194,0.613095 -0.4488376,0.01352 -1.6139699,-0.44868 -1.3441296,-0.08976 0.6041017,0.803529 1.6806984,1.103469 2.5210476,1.655205 C 8.3863872,38.88754 8.1994771,38.646544 8.1311778,38.362977 8.0272632,37.931542 8.0472279,37.479411 8.0052531,37.037629 7.9872799,36.449857 7.9533405,35.862355 7.9513297,35.274313 7.9360315,30.800802 8.535417,26.357 9.435117,21.981365 c 1.086905,-5.124509 2.237532,-10.284114 4.211688,-15.1521602 0,0 -3.446464,-1.8981182 -3.446464,-1.8981182 z" />
  </g>
</svg>
